<mxfile host="app.diagrams.net" modified="2023-04-24T16:48:52.151Z" agent="Mozilla/5.0 (Windows NT 10.0; Win64; x64) AppleWebKit/537.36 (KHTML, like Gecko) Chrome/112.0.0.0 Safari/537.36" etag="6jMdGUx-8PQEqCCd5OHM" version="21.2.1" type="github">
  <diagram name="Page-1" id="e3a06f82-3646-2815-327d-82caf3d4e204">
    <mxGraphModel dx="1434" dy="804" grid="1" gridSize="10" guides="1" tooltips="1" connect="1" arrows="1" fold="1" page="1" pageScale="1.5" pageWidth="1169" pageHeight="826" background="none" math="0" shadow="0">
      <root>
        <mxCell id="0" style=";html=1;" />
        <mxCell id="1" style=";html=1;" parent="0" />
        <mxCell id="Wzuri7a4cdjB3fEVf1Hi-14" value="" style="group" vertex="1" connectable="0" parent="1">
          <mxGeometry x="150" y="180" width="262.6" height="232.60000000000002" as="geometry" />
        </mxCell>
        <mxCell id="Wzuri7a4cdjB3fEVf1Hi-1" value="Webサーバー" style="image;points=[];aspect=fixed;html=1;align=center;shadow=0;dashed=0;image=img/lib/allied_telesis/computer_and_terminals/Server_Desktop.svg;" vertex="1" parent="Wzuri7a4cdjB3fEVf1Hi-14">
          <mxGeometry y="30" width="42.599999999999994" height="54" as="geometry" />
        </mxCell>
        <mxCell id="Wzuri7a4cdjB3fEVf1Hi-6" value="&#xa;&#xa;&#xa;ユーザー" style="group" vertex="1" connectable="0" parent="Wzuri7a4cdjB3fEVf1Hi-14">
          <mxGeometry x="80" y="190" width="74" height="42.60000000000002" as="geometry" />
        </mxCell>
        <mxCell id="Wzuri7a4cdjB3fEVf1Hi-7" value="" style="image;points=[];aspect=fixed;html=1;align=center;shadow=0;dashed=0;image=img/lib/allied_telesis/computer_and_terminals/Laptop.svg;" vertex="1" parent="Wzuri7a4cdjB3fEVf1Hi-6">
          <mxGeometry width="42" height="42.599999999999994" as="geometry" />
        </mxCell>
        <mxCell id="Wzuri7a4cdjB3fEVf1Hi-8" value="" style="outlineConnect=0;dashed=0;verticalLabelPosition=bottom;verticalAlign=top;align=center;html=1;shape=mxgraph.aws3.mobile_client;fillColor=#D2D3D3;gradientColor=none;" vertex="1" parent="Wzuri7a4cdjB3fEVf1Hi-6">
          <mxGeometry x="57" y="12.600000000000023" width="17" height="30" as="geometry" />
        </mxCell>
        <mxCell id="Wzuri7a4cdjB3fEVf1Hi-9" value="Akashic" style="whiteSpace=wrap;html=1;shape=mxgraph.basic.document" vertex="1" parent="Wzuri7a4cdjB3fEVf1Hi-14">
          <mxGeometry x="50" width="50" height="63" as="geometry" />
        </mxCell>
        <mxCell id="Wzuri7a4cdjB3fEVf1Hi-10" value="CDN" style="image;points=[];aspect=fixed;html=1;align=center;shadow=0;dashed=0;image=img/lib/allied_telesis/computer_and_terminals/Server_Desktop.svg;" vertex="1" parent="Wzuri7a4cdjB3fEVf1Hi-14">
          <mxGeometry x="170" y="30" width="42.599999999999994" height="54" as="geometry" />
        </mxCell>
        <mxCell id="Wzuri7a4cdjB3fEVf1Hi-11" value="ゲーム&lt;br&gt;スクリプト" style="whiteSpace=wrap;html=1;shape=mxgraph.basic.document" vertex="1" parent="Wzuri7a4cdjB3fEVf1Hi-14">
          <mxGeometry x="212.60000000000002" width="50" height="63" as="geometry" />
        </mxCell>
        <mxCell id="Wzuri7a4cdjB3fEVf1Hi-12" value="" style="endArrow=classic;html=1;rounded=0;exitX=1.071;exitY=-0.047;exitDx=0;exitDy=0;exitPerimeter=0;" edge="1" parent="Wzuri7a4cdjB3fEVf1Hi-14" source="Wzuri7a4cdjB3fEVf1Hi-7">
          <mxGeometry width="50" height="50" relative="1" as="geometry">
            <mxPoint x="120" y="170" as="sourcePoint" />
            <mxPoint x="60" y="100" as="targetPoint" />
          </mxGeometry>
        </mxCell>
        <mxCell id="Wzuri7a4cdjB3fEVf1Hi-13" value="" style="endArrow=classic;html=1;rounded=0;" edge="1" parent="Wzuri7a4cdjB3fEVf1Hi-14">
          <mxGeometry width="50" height="50" relative="1" as="geometry">
            <mxPoint x="130" y="190" as="sourcePoint" />
            <mxPoint x="170" y="100" as="targetPoint" />
          </mxGeometry>
        </mxCell>
        <mxCell id="Wzuri7a4cdjB3fEVf1Hi-15" value="" style="group" vertex="1" connectable="0" parent="1">
          <mxGeometry x="450" y="180" width="280" height="232.60000000000002" as="geometry" />
        </mxCell>
        <mxCell id="Wzuri7a4cdjB3fEVf1Hi-16" value="Webサーバー" style="image;points=[];aspect=fixed;html=1;align=center;shadow=0;dashed=0;image=img/lib/allied_telesis/computer_and_terminals/Server_Desktop.svg;" vertex="1" parent="Wzuri7a4cdjB3fEVf1Hi-15">
          <mxGeometry y="30" width="42.599999999999994" height="54" as="geometry" />
        </mxCell>
        <mxCell id="Wzuri7a4cdjB3fEVf1Hi-17" value="&#xa;&#xa;&#xa;ユーザー" style="group" vertex="1" connectable="0" parent="Wzuri7a4cdjB3fEVf1Hi-15">
          <mxGeometry x="80" y="190" width="74" height="42.60000000000002" as="geometry" />
        </mxCell>
        <mxCell id="Wzuri7a4cdjB3fEVf1Hi-18" value="" style="image;points=[];aspect=fixed;html=1;align=center;shadow=0;dashed=0;image=img/lib/allied_telesis/computer_and_terminals/Laptop.svg;" vertex="1" parent="Wzuri7a4cdjB3fEVf1Hi-17">
          <mxGeometry width="42" height="42.599999999999994" as="geometry" />
        </mxCell>
        <mxCell id="Wzuri7a4cdjB3fEVf1Hi-19" value="" style="outlineConnect=0;dashed=0;verticalLabelPosition=bottom;verticalAlign=top;align=center;html=1;shape=mxgraph.aws3.mobile_client;fillColor=#D2D3D3;gradientColor=none;" vertex="1" parent="Wzuri7a4cdjB3fEVf1Hi-17">
          <mxGeometry x="57" y="12.600000000000023" width="17" height="30" as="geometry" />
        </mxCell>
        <mxCell id="Wzuri7a4cdjB3fEVf1Hi-20" value="Akashic" style="whiteSpace=wrap;html=1;shape=mxgraph.basic.document" vertex="1" parent="Wzuri7a4cdjB3fEVf1Hi-15">
          <mxGeometry x="50" width="50" height="63" as="geometry" />
        </mxCell>
        <mxCell id="Wzuri7a4cdjB3fEVf1Hi-21" value="CDN" style="image;points=[];aspect=fixed;html=1;align=center;shadow=0;dashed=0;image=img/lib/allied_telesis/computer_and_terminals/Server_Desktop.svg;" vertex="1" parent="Wzuri7a4cdjB3fEVf1Hi-15">
          <mxGeometry x="170" y="30" width="42.599999999999994" height="54" as="geometry" />
        </mxCell>
        <mxCell id="Wzuri7a4cdjB3fEVf1Hi-22" value="ゲーム&lt;br&gt;スクリプト" style="whiteSpace=wrap;html=1;shape=mxgraph.basic.document" vertex="1" parent="Wzuri7a4cdjB3fEVf1Hi-15">
          <mxGeometry x="212.60000000000002" width="50" height="63" as="geometry" />
        </mxCell>
        <mxCell id="Wzuri7a4cdjB3fEVf1Hi-23" value="" style="endArrow=classic;html=1;rounded=0;" edge="1" parent="Wzuri7a4cdjB3fEVf1Hi-15">
          <mxGeometry width="50" height="50" relative="1" as="geometry">
            <mxPoint x="110" y="40" as="sourcePoint" />
            <mxPoint x="230" y="70" as="targetPoint" />
          </mxGeometry>
        </mxCell>
        <mxCell id="Wzuri7a4cdjB3fEVf1Hi-24" value="" style="endArrow=classic;html=1;rounded=0;" edge="1" parent="Wzuri7a4cdjB3fEVf1Hi-15">
          <mxGeometry width="50" height="50" relative="1" as="geometry">
            <mxPoint x="130" y="190" as="sourcePoint" />
            <mxPoint x="170" y="100" as="targetPoint" />
          </mxGeometry>
        </mxCell>
        <mxCell id="Wzuri7a4cdjB3fEVf1Hi-25" value="Akashic" style="whiteSpace=wrap;html=1;shape=mxgraph.basic.document" vertex="1" parent="Wzuri7a4cdjB3fEVf1Hi-15">
          <mxGeometry x="230" y="40" width="50" height="63" as="geometry" />
        </mxCell>
      </root>
    </mxGraphModel>
  </diagram>
</mxfile>
